# xmcd CD database file
#
# Track frame offsets:
#	183
#	16465
#	36398
#	46433
#	63098
#	82618
#	120363
#	144135
#	161940
#	203188
#
# Disc length: 2965 seconds
#
# Revision: 0
# Processed by: cddbd v1.5.1PL2 Copyright (c) Steve Scherf et al.
# Submitted via: CDex 1.51
#
DISCID=7a0b930a
DTITLE=Charlie Parker - More Unissued vol.1
DYEAR=1990
DGENRE=Jazz
TTITLE0=All Of Me
TTITLE1=I Cant Beleive That You  Are In Love With Me
TTITLE2=Embraceable You
TTITLE3=Hot House
TTITLE4=Cool Blues
TTITLE5=Ornithology
TTITLE6=Scrapple From The Apple
TTITLE7=Out Of Nowhere
TTITLE8=Nows The Time - 52nd Street Theme
TTITLE9=Cool Blues
EXTD=YEAR: 1990
EXTT0=
EXTT1=
EXTT2=
EXTT3=
EXTT4=
EXTT5=
EXTT6=
EXTT7=
EXTT8=
EXTT9=
PLAYORDER=
